<?xml version="1.0" encoding="utf-8"?>
<!-- Generator: Adobe Illustrator 28.0.0, SVG Export Plug-In . SVG Version: 6.00 Build 0)  -->
<svg version="1.1" id="レイヤー_1" xmlns="http://www.w3.org/2000/svg" xmlns:xlink="http://www.w3.org/1999/xlink" x="0px"
	 y="0px" viewBox="0 0 65 98.5" style="enable-background:new 0 0 65 98.5;" xml:space="preserve">
<style type="text/css">
	.st0{fill:#EA6488;}
	.st1{fill:none;}
</style>
<polygon class="st0" points="42.5,78.5 42.5,70 22.5,90 22.5,98.5 "/>
<polygon class="st0" points="42.5,98.1 42.5,90.5 34.9,98.1 "/>
<g>
	<polygon class="st0" points="42.5,58.5 42.5,50 22.5,70 22.5,78.5 	"/>
	<polygon class="st0" points="62.4,30.1 59.7,32.8 65,32.8 	"/>
</g>
<polygon class="st1" points="56.6,24.4 48.2,32.8 65,32.8 "/>
<polygon class="st0" points="52.4,20.1 22.5,50 22.5,58.5 42.5,38.5 42.5,32.8 48.2,32.8 56.6,24.4 "/>
<polygon class="st0" points="42.5,10 19.7,32.8 22.5,32.8 22.5,38.5 46.7,14.3 "/>
<g>
	<polygon class="st1" points="32.5,0 31.7,0.8 32.5,0 	"/>
	<polygon class="st0" points="32.5,0 31.7,0.8 0,32.8 8.2,32.8 36.7,4.3 	"/>
</g>
</svg>
