<?xml version="1.0" encoding="utf-8"?>
<!-- Generator: Adobe Illustrator 16.0.4, SVG Export Plug-In . SVG Version: 6.00 Build 0)  -->
<!DOCTYPE svg PUBLIC "-//W3C//DTD SVG 1.1//EN" "http://www.w3.org/Graphics/SVG/1.1/DTD/svg11.dtd">
<svg version="1.1" id="レイヤー_1" xmlns="http://www.w3.org/2000/svg" xmlns:xlink="http://www.w3.org/1999/xlink" x="0px"
	 y="0px" width="65px" height="177.653px" viewBox="0 0 65 177.653" enable-background="new 0 0 65 177.653" xml:space="preserve">
<polygon fill="#EA6488" points="42.5,150.007 22.5,170.007 22.5,177.653 23.339,177.653 42.5,158.492 "/>
<polygon fill="#EA6488" points="42.5,138.492 42.5,130.007 22.5,150.007 22.5,158.492 "/>
<polygon fill="#EA6488" points="42.5,177.653 42.5,170.007 34.854,177.653 "/>
<polygon fill="#EA6488" points="42.5,118.492 42.5,110.007 22.5,130.007 22.5,138.492 "/>
<polygon fill="#EA6488" points="42.5,98.492 42.5,90.007 22.5,110.007 22.5,118.492 "/>
<polygon fill="#EA6488" points="42.5,78.492 42.5,70.007 22.5,90.007 22.5,98.492 "/>
<g>
	<polygon fill="#EA6488" points="42.5,58.492 42.5,50.007 22.5,70.007 22.5,78.492 	"/>
	<polygon fill="#EA6488" points="62.367,30.141 59.71,32.798 65,32.798 	"/>
</g>
<polygon fill="none" points="56.636,24.356 48.194,32.798 65,32.798 "/>
<polygon fill="#EA6488" points="52.412,20.095 22.5,50.007 22.5,58.492 42.5,38.492 42.5,32.798 48.194,32.798 56.636,24.356 "/>
<polygon fill="#EA6488" points="42.458,10.049 19.71,32.798 22.5,32.798 22.5,38.492 46.681,14.311 "/>
<g>
	<polygon fill="none" points="32.5,0 31.675,0.833 32.504,0.004 	"/>
	<polygon fill="#EA6488" points="32.504,0.004 31.675,0.833 0,32.798 8.194,32.798 36.727,4.265 	"/>
</g>
</svg>
