<?xml version="1.0" encoding="utf-8"?>
<!-- Generator: Adobe Illustrator 16.0.4, SVG Export Plug-In . SVG Version: 6.00 Build 0)  -->
<!DOCTYPE svg PUBLIC "-//W3C//DTD SVG 1.1//EN" "http://www.w3.org/Graphics/SVG/1.1/DTD/svg11.dtd">
<svg version="1.1" id="レイヤー_1" xmlns="http://www.w3.org/2000/svg" xmlns:xlink="http://www.w3.org/1999/xlink" x="0px"
	 y="0px" width="40.646px" height="8.751px" viewBox="0 0 40.646 8.751" enable-background="new 0 0 40.646 8.751"
	 xml:space="preserve">
<g>
	<path fill="#E56228" d="M2.885,0c0.319,0,0.632,0.055,0.937,0.164c0.306,0.109,0.6,0.269,0.882,0.479
		c0.046,0.046,0.096,0.091,0.15,0.137c0.046-0.046,0.096-0.09,0.15-0.137c0.282-0.209,0.577-0.369,0.882-0.479
		C6.191,0.055,6.499,0,6.809,0C7.128,0,7.44,0.055,7.745,0.164C8.051,0.273,8.343,0.435,8.62,0.649
		c0.278,0.214,0.524,0.5,0.738,0.854C9.573,1.86,9.68,2.283,9.68,2.775v4.937C9.625,8.259,9.324,8.554,8.777,8.599
		c-0.255,0-0.476-0.084-0.663-0.252c-0.187-0.168-0.28-0.381-0.28-0.635V2.885c0-0.218-0.041-0.403-0.123-0.554
		S7.538,2.062,7.438,1.975C7.337,1.89,7.232,1.826,7.123,1.785C7.014,1.743,6.904,1.723,6.795,1.723s-0.216,0.02-0.321,0.062
		C6.369,1.826,6.267,1.89,6.166,1.975C6.065,2.062,5.975,2.181,5.893,2.331S5.765,2.667,5.756,2.885v4.827
		C5.701,8.259,5.4,8.554,4.854,8.599c-0.255,0-0.476-0.084-0.663-0.252C4.004,8.179,3.91,7.966,3.91,7.712V2.885
		c0-0.218-0.041-0.403-0.123-0.554S3.614,2.062,3.514,1.975C3.413,1.89,3.309,1.826,3.199,1.785C3.09,1.743,2.98,1.723,2.871,1.723
		S2.655,1.743,2.55,1.785C2.445,1.826,2.343,1.89,2.242,1.975C2.142,2.062,2.051,2.181,1.969,2.331S1.841,2.667,1.832,2.885v4.827
		C1.786,8.259,1.49,8.554,0.943,8.599c-0.255,0-0.476-0.084-0.663-0.252C0.094,8.179,0,7.966,0,7.712V2.775
		C0.019,2.283,0.132,1.86,0.342,1.504c0.21-0.355,0.456-0.64,0.738-0.854s0.577-0.376,0.882-0.485C2.268,0.055,2.575,0,2.885,0z"/>
	<path fill="#E56228" d="M13.945,0.369h0.629h4.648c0.255,0.009,0.468,0.105,0.636,0.288c0.169,0.183,0.253,0.401,0.253,0.656
		c-0.046,0.547-0.342,0.843-0.889,0.889H14.41c-0.347,0.019-0.634,0.149-0.861,0.396s-0.394,0.526-0.499,0.841
		c-0.104,0.314-0.157,0.636-0.157,0.964s0.053,0.649,0.157,0.964c0.105,0.314,0.271,0.595,0.499,0.841s0.515,0.378,0.861,0.397
		h4.812c0.255,0.008,0.468,0.105,0.636,0.286c0.169,0.183,0.253,0.4,0.253,0.657c-0.009,0.245-0.098,0.453-0.267,0.621
		c-0.168,0.17-0.376,0.258-0.622,0.266h-5.018h-0.26c-0.638-0.035-1.164-0.279-1.579-0.73c-0.414-0.451-0.711-0.964-0.889-1.537
		c-0.178-0.576-0.267-1.163-0.267-1.765s0.091-1.189,0.273-1.763c0.183-0.574,0.479-1.088,0.889-1.539
		C12.783,0.649,13.308,0.406,13.945,0.369z M20.084,4.349c0,0.254-0.091,0.469-0.273,0.642c-0.173,0.183-0.388,0.274-0.643,0.274
		h-4.129c-0.255,0-0.472-0.09-0.649-0.268s-0.267-0.395-0.267-0.648c0-0.256,0.087-0.475,0.26-0.657
		c0.183-0.173,0.401-0.26,0.656-0.26h4.129c0.255,0,0.472,0.089,0.649,0.266C19.995,3.876,20.084,4.093,20.084,4.349z"/>
	<path fill="#E56228" d="M25.839,0c0.475,0,0.941,0.055,1.402,0.164c0.461,0.109,0.9,0.271,1.318,0.485
		c0.42,0.214,0.791,0.5,1.115,0.854C30,1.86,30.173,2.283,30.201,2.775V3.35v4.362c-0.055,0.547-0.355,0.842-0.902,0.887
		c-0.254,0-0.475-0.084-0.662-0.252s-0.281-0.381-0.281-0.635V3.199c-0.018-0.283-0.125-0.517-0.32-0.704s-0.414-0.334-0.656-0.445
		c-0.242-0.109-0.492-0.19-0.752-0.246c-0.26-0.054-0.521-0.082-0.787-0.082c-0.264,0-0.525,0.027-0.785,0.082
		c-0.26,0.055-0.51,0.137-0.752,0.246c-0.242,0.11-0.461,0.258-0.656,0.445s-0.303,0.421-0.322,0.704v4.513
		c-0.045,0.547-0.342,0.842-0.889,0.887c-0.254,0-0.475-0.084-0.663-0.252c-0.187-0.168-0.28-0.381-0.28-0.635V3.35V2.775
		c0.027-0.492,0.2-0.916,0.519-1.271c0.32-0.355,0.689-0.64,1.107-0.854c0.42-0.214,0.859-0.376,1.32-0.485
		C24.9,0.055,25.367,0,25.839,0z"/>
	<path fill="#E56228" d="M36.285,8.751c-0.473,0-0.941-0.056-1.4-0.164c-0.461-0.111-0.9-0.271-1.32-0.486
		c-0.418-0.213-0.787-0.499-1.107-0.854c-0.318-0.355-0.492-0.78-0.52-1.271V5.401V1.039c0-0.254,0.094-0.466,0.281-0.636
		c0.186-0.167,0.408-0.253,0.662-0.253c0.547,0.046,0.844,0.342,0.889,0.889V5.55c0.02,0.283,0.125,0.52,0.322,0.705
		c0.195,0.187,0.414,0.334,0.656,0.444c0.24,0.108,0.492,0.191,0.752,0.247c0.26,0.054,0.521,0.082,0.785,0.082
		c0.266,0,0.527-0.028,0.787-0.082c0.26-0.056,0.51-0.139,0.752-0.247c0.24-0.11,0.459-0.258,0.656-0.444
		c0.195-0.186,0.303-0.422,0.32-0.705V1.039c0-0.254,0.094-0.466,0.281-0.636c0.186-0.167,0.408-0.253,0.662-0.253
		c0.547,0.046,0.848,0.342,0.902,0.889v4.362v0.573c-0.027,0.491-0.203,0.916-0.525,1.271c-0.324,0.355-0.695,0.642-1.115,0.854
		c-0.418,0.215-0.859,0.375-1.318,0.486C37.226,8.695,36.759,8.751,36.285,8.751z"/>
</g>
</svg>
