<?xml version="1.0" encoding="utf-8"?>
<!-- Generator: Adobe Illustrator 16.0.4, SVG Export Plug-In . SVG Version: 6.00 Build 0)  -->
<!DOCTYPE svg PUBLIC "-//W3C//DTD SVG 1.1//EN" "http://www.w3.org/Graphics/SVG/1.1/DTD/svg11.dtd">
<svg version="1.1" id="レイヤー_1" xmlns="http://www.w3.org/2000/svg" xmlns:xlink="http://www.w3.org/1999/xlink" x="0px"
	 y="0px" width="218.682px" height="89.449px" viewBox="0 0 218.682 89.449" enable-background="new 0 0 218.682 89.449"
	 xml:space="preserve">
<g>
	<g>
		<path d="M37.534,8.824c0-0.655,0.229-1.213,0.686-1.67s1.014-0.686,1.67-0.686h14.766c0.141,0,0.281,0.013,0.422,0.035h0.211
			c1.64,0.048,2.988,0.487,4.043,1.318c1.055,0.833,1.815,1.775,2.285,2.83c0.469,1.055,0.703,2.122,0.703,3.199
			c0,1.125-0.229,2.215-0.686,3.27s-1.219,1.999-2.285,2.83c-1.067,0.833-2.421,1.237-4.061,1.213h-1.969
			c-0.656,0-1.208-0.233-1.652-0.703c-0.47-0.444-0.703-0.995-0.703-1.652c0-0.655,0.229-1.213,0.686-1.67s1.014-0.686,1.67-0.686
			h2.18c0.444,0,0.813-0.146,1.107-0.439c0.293-0.292,0.51-0.633,0.65-1.02s0.211-0.778,0.211-1.178c0-0.374-0.07-0.756-0.211-1.143
			s-0.357-0.726-0.65-1.02c-0.294-0.292-0.663-0.45-1.107-0.475H39.89c-0.656,0-1.208-0.233-1.652-0.703
			C37.768,10.032,37.534,9.481,37.534,8.824z M48.081,12.938c0.633,0.024,1.143,0.253,1.529,0.686c0.387,0.435,0.557,0.967,0.51,1.6
			l-0.211,1.863c-0.234,1.665-0.668,3.234-1.301,4.711c-0.681,1.477-1.623,2.725-2.83,3.744c-1.208,1.02-2.632,1.577-4.271,1.67
			H39.96c-0.633-0.022-1.166-0.251-1.6-0.686c-0.435-0.433-0.663-0.967-0.686-1.6c0-0.655,0.216-1.218,0.65-1.688
			c0.434-0.468,0.979-0.714,1.635-0.738h0.984c0.891-0.046,1.67-0.387,2.338-1.02s1.13-1.354,1.389-2.162
			c0.258-0.809,0.444-1.692,0.562-2.654l0.141-1.441c0.117-0.655,0.434-1.2,0.949-1.635C46.838,13.155,47.425,12.938,48.081,12.938z
			"/>
		<path d="M69.878,5.906c0.633,0.024,1.172,0.253,1.617,0.686c0.444,0.435,0.68,0.967,0.703,1.6v12.586
			c-0.023,1.782-0.457,3.646-1.301,5.59c-0.681,1.219-1.7,1.605-3.059,1.16c-0.586-0.281-1.015-0.714-1.283-1.301
			c-0.27-0.585-0.276-1.171-0.018-1.758c0.609-1.358,0.914-2.542,0.914-3.551V8.191c0.022-0.655,0.269-1.2,0.738-1.635
			C68.659,6.124,69.222,5.906,69.878,5.906z M77.823,5.906c0.633,0.024,1.172,0.253,1.617,0.686c0.444,0.435,0.68,0.967,0.703,1.6
			v13.465c0,0.352,0.141,0.681,0.422,0.984c0.398,0.399,1.02,0.435,1.863,0.105c0.844-0.327,2.262-1.441,4.254-3.34
			c0.539-0.422,1.143-0.62,1.811-0.598c0.668,0.024,1.248,0.235,1.74,0.633c0.469,0.47,0.703,0.991,0.703,1.564
			c0,0.575-0.234,1.085-0.703,1.529l-4.043,3.621c-1.195,0.962-2.531,1.553-4.008,1.775s-2.977-0.105-4.5-0.984
			c-1.524-0.879-2.285-2.584-2.285-5.115V8.191c0.022-0.655,0.269-1.2,0.738-1.635C76.604,6.124,77.167,5.906,77.823,5.906z"/>
		<path d="M102.803,5.906c0.633,0.024,1.172,0.253,1.617,0.686c0.444,0.435,0.68,0.967,0.703,1.6v8.895
			c-0.023,1.665-0.259,3.234-0.703,4.711c-0.47,1.477-1.236,2.725-2.303,3.744c-1.067,1.02-2.421,1.577-4.061,1.67h-2.25
			c-0.633-0.022-1.166-0.251-1.6-0.686c-0.435-0.433-0.663-0.967-0.686-1.6c0-0.655,0.216-1.218,0.65-1.688
			c0.434-0.468,0.979-0.714,1.635-0.738h1.055c0.891-0.046,1.629-0.387,2.215-1.02c0.585-0.633,0.954-1.354,1.107-2.162
			c0.152-0.809,0.216-1.692,0.193-2.654V8.191c0.022-0.655,0.269-1.2,0.738-1.635C101.584,6.124,102.146,5.906,102.803,5.906z
			 M109.061,2.531c0-0.703,0.246-1.301,0.738-1.793S110.889,0,111.592,0s1.301,0.246,1.793,0.738s0.738,1.09,0.738,1.793
			s-0.246,1.301-0.738,1.793s-1.09,0.738-1.793,0.738s-1.301-0.246-1.793-0.738S109.061,3.234,109.061,2.531z M111.592,5.906
			c0.654,0,1.217,0.218,1.688,0.65c0.469,0.435,0.715,0.979,0.738,1.635v8.473c-0.023,0.962,0.039,1.846,0.193,2.654
			c0.152,0.809,0.521,1.529,1.107,2.162c0.584,0.633,1.322,0.974,2.215,1.02h1.055c0.654,0.024,1.199,0.271,1.635,0.738
			c0.434,0.47,0.65,1.032,0.65,1.688c-0.023,0.633-0.252,1.167-0.686,1.6c-0.436,0.435-0.967,0.663-1.6,0.686h-2.25
			c-1.641-0.093-2.994-0.65-4.061-1.67c-1.068-1.02-1.834-2.268-2.303-3.744c-0.445-1.477-0.681-3.046-0.703-4.711V8.191
			c0.022-0.633,0.258-1.165,0.703-1.6C110.418,6.159,110.959,5.931,111.592,5.906z M115.108,2.531c0-0.703,0.246-1.301,0.738-1.793
			S116.936,0,117.639,0s1.301,0.246,1.793,0.738s0.738,1.09,0.738,1.793s-0.246,1.301-0.738,1.793s-1.09,0.738-1.793,0.738
			s-1.301-0.246-1.793-0.738S115.108,3.234,115.108,2.531z"/>
		<path d="M147.346,9l-0.703,1.828c-1.033,2.672-2.25,4.688-3.656,6.047c-1.104,1.055-2.273,1.735-3.516,2.039v6.504
			c-0.141,1.406-0.914,2.168-2.32,2.285c-0.656,0-1.227-0.217-1.705-0.65c-0.48-0.433-0.721-0.978-0.721-1.635v-6.363h-8.227
			c-0.633-0.022-1.166-0.251-1.6-0.686c-0.436-0.433-0.664-0.967-0.686-1.6c0-0.655,0.215-1.218,0.65-1.688
			c0.434-0.468,0.979-0.714,1.635-0.738h10.688c0.891-0.046,1.727-0.387,2.514-1.02c0.785-0.633,1.375-1.354,1.775-2.162
			c0.398-0.809,0.76-1.67,1.09-2.584l0.422-1.125c0.162-0.492,0.404-0.896,0.721-1.213s0.803-0.475,1.459-0.475
			c0.633,0,1.178,0.235,1.635,0.703c0.457,0.47,0.686,1.032,0.686,1.688C147.487,8.462,147.438,8.743,147.346,9z"/>
		<path d="M154.448,5.906c0.633,0.024,1.172,0.253,1.617,0.686c0.443,0.435,0.68,0.967,0.703,1.6v6.152h14.098
			c0.654,0,1.217,0.224,1.688,0.668c0.443,0.47,0.668,1.032,0.668,1.688c0,0.657-0.229,1.213-0.686,1.67s-1.016,0.686-1.67,0.686
			h-14.098v6.363c-0.141,1.406-0.914,2.168-2.32,2.285c-0.656,0-1.227-0.217-1.705-0.65c-0.48-0.433-0.721-0.978-0.721-1.635V8.191
			c0.021-0.655,0.268-1.2,0.738-1.635C153.229,6.124,153.792,5.906,154.448,5.906z"/>
	</g>
</g>
<g>
	<g>
		<path d="M0,88.535l10.449-49.437h26.342l-1.455,6.83H17.009l-2.841,13.426h17.145l-1.42,6.797H12.748l-3.314,15.52h18.328
			l-1.453,6.865H0z"/>
		<path d="M36.621,88.535L47.07,39.098h9.028l13.594,38.886h0.202c0.158-1.035,0.361-2.316,0.609-3.838s0.529-3.105,0.846-4.75
			c0.314-1.646,0.619-3.168,0.912-4.566l5.479-25.732h7.338L74.629,88.535h-8.791L51.939,49.074h-0.236
			c-0.068,0.518-0.182,1.301-0.338,2.35c-0.158,1.047-0.345,2.248-0.559,3.602c-0.215,1.352-0.445,2.727-0.693,4.125
			s-0.507,2.693-0.777,3.889l-5.377,25.496H36.621z"/>
		<path d="M94.648,88.535l8.994-42.539h-12.85l1.454-6.898h33.748l-1.42,6.898H111.69l-8.995,42.539H94.648z"/>
		<path d="M122.85,88.535l10.449-49.437h11.463c5.004,0,8.859,1.054,11.564,3.162c2.705,2.107,4.059,5.371,4.059,9.789
			c0,2.525-0.447,4.779-1.336,6.764c-0.891,1.984-2.205,3.668-3.939,5.055c-1.736,1.387-3.879,2.463-6.426,3.229l8.488,21.439
			h-8.725l-7.102-19.816h-6.322l-4.193,19.816H122.85z M136.444,62.023h4.295c1.869,0,3.521-0.213,4.953-0.641
			c1.432-0.43,2.625-1.043,3.584-1.844s1.68-1.793,2.164-2.977s0.727-2.518,0.727-4.006c0-2.367-0.676-4.074-2.027-5.123
			c-1.354-1.049-3.428-1.572-6.223-1.572h-4.023L136.444,62.023z"/>
		<path d="M171.78,88.535l4.023-18.768l-8.08-30.669h8.115l5.275,22.587l14.676-22.587h9.027l-21.1,30.771l-3.924,18.666H171.78z"/>
		<path d="M203.938,89.449c-1.51,0-2.609-0.402-3.297-1.201c-0.688-0.801-1.031-1.787-1.031-2.959c0-1.51,0.451-2.885,1.352-4.125
			c0.902-1.24,2.412-1.859,4.531-1.859c1.264,0,2.271,0.365,3.027,1.098c0.754,0.732,1.133,1.764,1.133,3.094
			c0,1.602-0.496,2.994-1.488,4.178S205.764,89.449,203.938,89.449z M203.499,73.453l6.02-34.355h9.164l-8.557,34.355H203.499z"/>
	</g>
</g>
</svg>
