<?xml version="1.0" encoding="utf-8"?>
<!-- Generator: Adobe Illustrator 15.0.0, SVG Export Plug-In . SVG Version: 6.00 Build 0)  -->
<!DOCTYPE svg PUBLIC "-//W3C//DTD SVG 1.1//EN" "http://www.w3.org/Graphics/SVG/1.1/DTD/svg11.dtd">
<svg version="1.1" id="レイヤー_1" xmlns="http://www.w3.org/2000/svg" xmlns:xlink="http://www.w3.org/1999/xlink" x="0px"
	 y="0px" width="347.465px" height="90.964px" viewBox="0 0 347.465 90.964" enable-background="new 0 0 347.465 90.964"
	 xml:space="preserve">
<g>
	<path fill="#E56228" d="M14.697,26.023C8.895,31.493,5.69,34.2,0,38.455l3.923,8.729l14.198-12.763L14.697,26.023z"/>
	<path fill="#E56228" d="M26.631,21.935c0-1.658,1.159-3.095,1.712-3.813l-7.679-3.591c-1.161,1.437-3.15,4.033-3.15,8.011
		c0,4.034,1.438,5.802,5.746,11.051c2.983,3.646,4.199,5.138,4.199,6.851c0,2.486-2.265,2.597-2.873,2.597
		c-0.828,0-3.646-0.166-8.729-2.431l0.938,9.724c1.271,0.387,4.421,1.326,8.343,1.326c10.333,0,12.102-6.795,12.102-10.774
		c0-5.083-2.818-8.398-6.687-13.04C27.017,23.647,26.631,23.15,26.631,21.935z"/>
	<path fill="#E56228" d="M37.128,9.393C28.565,5.857,21.382,4.365,17.9,3.592l-3.315,7.735c6.687,1.105,12.432,2.817,19.282,6.022
		L37.128,9.393z"/>
	<path fill="#E56228" d="M34.089,27.293c3.813,4.807,6.741,9.669,9.779,16.134l7.68-4.752c-3.094-6.078-6.464-10.995-10.442-15.913
		L34.089,27.293z"/>
	<path fill="#E56228" d="M73.989,42.93c-8.011,0-7.734-6.574-7.623-10L67.47,4.365l-9.448-0.552l-0.995,29.228
		c-0.11,3.37,0.109,5.249,0.222,6.077c1.049,8.232,7.68,12.762,16.409,12.762c11.934,0,19.56-7.071,24.808-21.215l-8.067-4.476
		C86.918,36.576,82.166,42.93,73.989,42.93z"/>
	<path fill="#E56228" d="M93.548,14.31c-1.88-3.149-4.255-6.906-7.516-10.221L81.78,7.514c3.369,3.757,4.695,5.856,7.182,10.332
		L93.548,14.31z"/>
	<path fill="#E56228" d="M85.979,19.172c-2.211-3.923-4.31-7.183-7.238-10.388L74.376,12.1c3.204,3.757,4.64,6.022,7.071,10.664
		L85.979,19.172z"/>
	<path fill="#E56228" d="M137.37,9.835c-1.713,0-2.817,0.166-3.757,0.331c-1.988-3.204-2.816-4.531-4.585-6.961l-7.182,4.31
		c1.933,2.818,2.374,3.536,3.258,4.973c-3.426,1.216-4.807,1.768-6.188,2.321c-1.603-3.979-2.431-6.023-4.587-10.83l-8.342,3.37
		c1.657,3.592,3.26,7.183,4.697,10.83c-1.216,0.497-7.35,3.094-8.73,3.702l3.757,8.122c1.161-0.552,6.852-3.093,8.178-3.701
		c3.369,8.729,6.022,17.735,8.51,26.743l8.894-2.652c-1.657-5.581-4.751-15.802-9.281-27.626c7.404-3.204,11.271-4.861,15.469-4.861
		c3.592,0,5.691,2.43,5.691,5.193c0,4.531-4.751,6.354-9.724,6.354c-1.438,0-2.651-0.166-3.702-0.331l2.156,8.619
		c9.889,0.553,19.943-3.591,19.943-14.255C151.845,14.421,145.215,9.835,137.37,9.835z"/>
	<path fill="#E56228" d="M191.027,3.481c2.873,3.536,4.199,5.691,6.244,9.89l3.867-2.597c-2.543-4.696-4.199-7.293-6.521-9.834
		L191.027,3.481z"/>
	<path fill="#E56228" d="M208.984,10.111c-2.209-4.476-3.646-7.017-6.188-10.111l-3.646,2.376c2.707,3.757,4.033,6.022,5.912,10.332
		L208.984,10.111z"/>
	<path fill="#E56228" d="M169.811,7.017c-2.763,5.525-6.74,11.216-14.089,17.183l6.905,5.967
		c7.184-6.077,10.664-11.327,12.709-14.697h14.696c-1.16,4.53-3.37,11.879-9.834,18.841c-4.862,5.249-10.94,9.171-17.681,11.547
		l6.133,7.459c19.448-7.845,26.354-22.1,30.111-35.415L190.75,7.017H169.811z"/>
	<path fill="#E56228" d="M212.417,19.062c0,9.945-1.381,18.012-9.502,26.41l6.63,6.796c10.827-10.554,11.934-22.267,11.934-33.593
		V5.193h-9.062V19.062z"/>
	<path fill="#E56228" d="M234.85,38.51V4.42h-8.951v47.24c15.193-3.701,23.813-14.034,27.957-19.834l-6.078-6.244
		C244.85,29.946,240.706,34.808,234.85,38.51z"/>
	<rect x="259.264" y="23.703" fill="#E56228" width="35.944" height="8.563"/>
	<path fill="#E56228" d="M339.952,0c-4.146,0-7.517,3.315-7.517,7.514c0,4.144,3.371,7.514,7.517,7.514
		c4.143,0,7.514-3.37,7.514-7.514C347.465,3.315,344.04,0,339.952,0z M339.952,11.271c-2.102,0-3.757-1.713-3.757-3.757
		c0-2.1,1.711-3.757,3.757-3.757c1.988,0,3.756,1.602,3.756,3.757C343.708,9.614,341.996,11.271,339.952,11.271z"/>
	<path fill="#E56228" d="M296.855,8.398v8.675h30.939c-0.938,4.917-3.702,19.724-23.148,27.681l5.911,7.458
		c19.56-9.006,24.531-23.757,26.575-34.586l-7.845-9.227L296.855,8.398L296.855,8.398z"/>
</g>
<g>
	<rect x="54.211" y="80.563" fill="#FFFFFF" width="15.472" height="3.563"/>
	<rect x="267.759" y="80.563" fill="#FFFFFF" width="15.47" height="3.563"/>
	<path fill="#FFFFFF" d="M105.34,78.776c-1.617-0.548-2.961-1.021-2.961-2.688c0-1.44,1.194-2.562,3.035-2.562
		c0.423,0,1.939,0,3.88,1.319l0.82-3.209c-1.517-0.848-3.059-1.318-4.801-1.318c-3.855,0-6.441,2.563-6.441,5.944
		c0,3.384,2.263,4.627,5.173,5.597c1.593,0.547,3.582,1.219,3.582,3.186c0,1.766-1.717,2.711-3.755,2.711
		c-1.294,0-2.886-0.35-4.776-1.691l-1.02,3.159c1.791,1.144,3.854,1.741,5.969,1.741c4.304,0,7.115-2.637,7.115-6.17
		C111.161,80.791,108.2,79.77,105.34,78.776z"/>
	<rect x="114.041" y="70.716" fill="#FFFFFF" width="3.582" height="19.85"/>
	<polygon fill="#FFFFFF" points="134.933,85.667 125.256,70.716 121.077,70.716 121.077,90.566 124.583,90.566 124.583,75.617 
		134.26,90.566 138.44,90.566 138.44,70.716 134.933,70.716 	"/>
	<path fill="#FFFFFF" d="M151.468,73.527c2.935,0,4.353,1.194,5.147,1.866l1.146-3.209c-1.916-1.271-4.029-1.865-6.293-1.865
		c-5.87,0-10.571,4.005-10.571,10.372c0,5.497,3.655,10.273,10.571,10.273c3.433,0,5.596-1.096,6.293-1.442v-3.756
		c-0.971,0.646-2.887,1.989-6.045,1.989c-5.124,0-7.312-3.532-7.312-7.114C144.404,76.736,146.965,73.527,151.468,73.527z"/>
	<polygon fill="#FFFFFF" points="163.774,81.884 172.058,81.884 172.058,78.75 163.774,78.75 163.774,73.923 172.855,73.923 
		172.855,70.716 160.269,70.716 160.269,90.566 173.179,90.566 173.179,87.358 163.774,87.358 	"/>
	<polygon fill="#FFFFFF" points="185.359,73.75 185.807,77.009 189.414,74.498 189.414,90.566 192.945,90.566 192.945,70.716 
		189.835,70.716 	"/>
	<path fill="#FFFFFF" d="M206.771,70.319c-4.08,0-7.041,3.034-7.041,6.938c0,4.08,3.109,6.492,6.468,6.492
		c2.265,0,3.407-0.994,4.229-1.69c-0.745,4.948-3.731,5.696-5.747,5.696c-0.771,0-1.689-0.1-2.885-0.573v3.284
		c0.449,0.148,1.419,0.498,2.984,0.498c6.119,0,9.402-4.926,9.402-11.492C214.184,71.166,208.786,70.319,206.771,70.319z
		 M206.771,80.691c-1.892,0-3.533-1.27-3.533-3.507c0-1.791,1.269-3.657,3.607-3.657c2.139,0,3.705,1.566,3.705,3.633
		C210.551,79.324,208.71,80.691,206.771,80.691z"/>
	<path fill="#FFFFFF" d="M226.865,79.794c0.722-0.422,2.462-1.441,2.462-4.078c0-3.284-2.763-5.397-6.345-5.397
		c-2.336,0-4.426,0.847-6.168,2.412l1.244,3.085c1.244-1.369,2.885-2.289,4.851-2.289c1.394,0,2.96,0.723,2.96,2.463
		c0,1.17-0.846,2.612-3.333,2.612h-1.964v2.983h2.113c2.984,0,4.277,1.295,4.277,2.887c0,1.492-1.095,3.283-4.451,3.283
		c-3.06,0-4.752-1.119-5.397-1.567l-1.021,3.16c0.795,0.422,2.937,1.616,6.418,1.616c5.868,0,7.983-3.334,7.983-6.145
		C230.496,81.414,227.934,80.268,226.865,79.794z"/>
	<path fill="#FFFFFF" d="M243.275,79.794c0.723-0.422,2.463-1.441,2.463-4.078c0-3.284-2.76-5.397-6.342-5.397
		c-2.338,0-4.429,0.847-6.17,2.412l1.244,3.085c1.243-1.369,2.885-2.289,4.852-2.289c1.393,0,2.959,0.723,2.959,2.463
		c0,1.17-0.846,2.612-3.333,2.612h-1.966v2.983h2.115c2.983,0,4.277,1.295,4.277,2.887c0,1.492-1.096,3.283-4.452,3.283
		c-3.06,0-4.751-1.119-5.397-1.567l-1.021,3.16c0.796,0.422,2.937,1.616,6.418,1.616c5.871,0,7.984-3.334,7.984-6.145
		C246.908,81.414,244.346,80.268,243.275,79.794z"/>
</g>
</svg>
