<?xml version="1.0" encoding="utf-8"?>
<!-- Generator: Adobe Illustrator 15.0.0, SVG Export Plug-In . SVG Version: 6.00 Build 0)  -->
<!DOCTYPE svg PUBLIC "-//W3C//DTD SVG 1.1//EN" "http://www.w3.org/Graphics/SVG/1.1/DTD/svg11.dtd">
<svg version="1.1" id="レイヤー_1" xmlns="http://www.w3.org/2000/svg" xmlns:xlink="http://www.w3.org/1999/xlink" x="0px"
	 y="0px" width="215.816px" height="63.259px" viewBox="0 0 215.816 63.259" enable-background="new 0 0 215.816 63.259"
	 xml:space="preserve">
<g enable-background="new    ">
	<path fill="#040000" d="M17.43,48.206l1.068,1.278c-0.618,1.081-2.155,3.691-4.854,6.248l-2.023-1.477
		c1.312-1.152,2.062-1.998,3.223-3.655H2.516v-2.395H17.43z M11.228,52.492c-0.019,4.501-1.368,7.958-5.434,10.118l-1.949-1.818
		c3.804-1.818,4.778-4.411,4.778-8.3H11.228z"/>
	<path fill="#040000" d="M26.682,47.378v4.304c0,3.043-0.168,7.256-4.085,10.856l-1.93-1.782c2.66-2.538,3.448-5.076,3.448-8.877
		v-4.501H26.682z M30.954,47.126v11.632c1.986-1.116,3.561-2.755,4.891-4.538l1.762,1.729c-2.043,2.719-5.004,5.331-9.182,6.41
		V47.126H30.954z"/>
	<path fill="#040000" d="M45.94,48.838c-0.45,3.222-1.593,8.281-4.947,12.891l-2.417-1.297c1.556-2.179,3.822-5.689,4.722-12.027
		L45.94,48.838z M52.741,61.225c-1.143-6.267-3.521-10.371-4.44-11.92l2.212-1.152c1.349,2.215,3.784,6.355,4.909,12.298
		L52.741,61.225z M52.592,46.514c0.862,1.171,1.387,2.341,1.837,3.421l-1.368,0.721c-0.525-1.44-0.918-2.251-1.742-3.476
		L52.592,46.514z M55.047,45.577c0.787,1.063,1.199,1.927,1.836,3.422l-1.35,0.72c-0.562-1.494-0.898-2.179-1.761-3.475
		L55.047,45.577z"/>
	<path fill="#040000" d="M67.821,62.503h-2.604v-8.571c-2.698,1.369-4.385,1.945-6.09,2.503l-1.293-2.196
		c7.477-2.287,11.73-5.888,13.585-7.49l1.986,1.584c-1.593,1.404-3.054,2.575-5.584,4.16V62.503z"/>
	<path fill="#040000" d="M87.923,58.146c-2.68-1.999-4.422-2.953-6.651-4.017v8.428h-2.586V46.82h2.586v4.663
		c2.174,0.973,4.815,2.215,8.094,4.537L87.923,58.146z"/>
	<path fill="#040000" d="M91.966,55.463c0.563-0.108,1.256-0.234,2.268-0.522v-3.673h-2.08v-2.071h2.08v-3.007h2.268v3.007H98v2.071
		h-1.499v2.952c0.374-0.126,0.6-0.216,1.255-0.485l0.094,2.088c-0.375,0.181-0.769,0.343-1.349,0.576v5.456
		c0,0.811-0.619,1.332-1.387,1.332H92.51L92.153,60.9h1.705c0.3,0,0.375-0.055,0.375-0.36v-3.349
		c-1.105,0.342-1.48,0.432-2.005,0.576L91.966,55.463z M96.969,60.486c1.574-0.864,3.448-2.017,5.135-4.214h-3.991V54.22h4.497
		v-1.152h2.192v1.152h4.928v2.053h-4.291c1.424,2.231,3.204,3.385,4.46,4.105l-1.256,2.07c-1.574-1.063-2.792-2.394-3.822-4.087
		v4.825h-2.192v-4.683c-1.274,1.658-2.604,2.828-4.385,3.927L96.969,60.486z M109.41,48.044c-3.166,0.794-8.225,0.99-10.83,0.99
		l-0.393-1.926c3.578-0.054,7.888-0.234,10.174-0.973L109.41,48.044z M100.116,49.61c0.713,1.314,0.9,1.747,1.313,3.115
		l-1.986,0.612c-0.355-1.494-1.012-2.755-1.218-3.151L100.116,49.61z M104.052,49.16c0.563,1.152,0.824,1.981,1.031,3.043
		l-2.118,0.396c-0.188-0.954-0.394-1.729-0.975-3.007L104.052,49.16z M109.748,49.322c-0.618,1.513-1.124,2.647-2.117,4.105
		l-1.968-0.773c0.544-0.883,1.536-2.918,1.837-4.033L109.748,49.322z"/>
	<path fill="#040000" d="M127.396,61.44c0,1.458-1.031,1.765-2.043,1.765h-2.323l-0.318-2.269h1.854c0.244,0,0.469-0.036,0.469-0.45
		v-2.648H120.8v5.205h-2.192v-5.205h-4.16c-0.281,2.504-0.918,3.998-1.892,5.295l-1.931-1.801c0.992-1.386,1.742-3.15,1.742-5.726
		v-8.679h15.028V61.44z M118.607,49.07h-3.973v2.323h3.973V49.07z M118.607,53.446h-3.973v2.322h3.973V53.446z M125.034,49.07H120.8
		v2.323h4.234V49.07z M125.034,53.446H120.8v2.322h4.234V53.446z"/>
	<path fill="#040000" d="M138.54,63.187l-0.338-2.034l2.361,0.072c0.637,0.018,0.824-0.271,0.843-1.801h-3.223
		c-1.705,3.169-5.49,3.673-6.858,3.835l-0.899-2.034c3.092-0.126,4.46-0.955,5.266-1.801h-3.186v-0.216
		c-1.049,0.521-1.63,0.755-2.566,1.098l-0.993-1.98c0.955-0.234,2.623-0.612,4.328-1.782h-4.01v-1.639h5.658
		c0.112-0.18,0.188-0.287,0.338-0.576h-4.366v-5.006h2.829v-0.666h-4.459v-1.693h4.459v-0.791h2.268v0.791h4.235v-0.791h2.305v0.791
		h4.384v1.693h-4.384v0.666h2.772v5.006h-7.607c-0.149,0.289-0.188,0.36-0.318,0.576h9.537v1.639h-3.972
		c1.105,0.937,2.248,1.53,4.328,1.927l-1.031,1.998c-0.749-0.253-1.311-0.45-2.51-1.08c-0.188,2.179-0.338,3.799-2.137,3.799H138.54
		z M143.018,50.619h-9.837v0.686h9.837V50.619z M143.018,52.312h-9.837v0.756h9.837V52.312z M141.351,57.838
		c-0.712-0.557-0.975-0.845-1.312-1.295h-3.88c-0.523,0.576-0.843,0.864-1.404,1.295h1.836c0.131-0.413,0.188-0.611,0.244-0.971
		l2.173,0.107c-0.057,0.378-0.094,0.522-0.168,0.863H141.351z M140.227,49.322v-0.666h-4.235v0.666H140.227z"/>
	<path fill="#040000" d="M164.581,62.809c-0.993-0.234-3.936-0.9-6.821-3.169v3.511h-2.268v-3.438
		c-2.903,2.159-5.584,2.808-6.782,3.078l-1.124-2.232c3.223-0.486,4.628-1.009,5.958-1.711h-5.696v-1.837h7.645v-0.918h-5.677
		v-4.375c-0.412,0.378-0.618,0.54-0.993,0.827l-1.236-1.962c2.491-1.927,3.204-3.403,3.615-4.411l2.493,0.233
		c-0.226,0.433-0.394,0.793-0.638,1.224h2.979c0.3-0.773,0.318-0.863,0.506-1.475l2.417,0.143c-0.131,0.343-0.506,1.226-0.543,1.332
		h5.939v1.64h-6.239v0.792h5.696v1.244h-5.696v0.881h5.696v1.351h-5.696v0.9h6.783v1.656h-7.177v0.918h7.664v1.837h-5.622
		c0.993,0.54,2.38,1.17,5.903,1.729L164.581,62.809z M152.045,49.251v0.81h3.936v-0.81H152.045z M152.045,51.285v0.9h3.936v-0.9
		H152.045z M152.045,53.5v0.937h3.936V53.5H152.045z"/>
	<path fill="#040000" d="M167.088,53.229v-2.322h3.204V47.45h2.491v3.457h4.723V47h2.492v3.907h3.203v2.322h-3.203v1.026
		c0,2.899-0.431,6.356-5.435,8.391l-1.705-1.854c4.123-1.495,4.647-3.745,4.647-6.392v-1.171h-4.723v4.268h-2.491v-4.268H167.088z"
		/>
	<path fill="#040000" d="M195.583,62.503h-2.604v-8.571c-2.698,1.369-4.385,1.945-6.09,2.503l-1.293-2.196
		c7.477-2.287,11.729-5.888,13.585-7.49l1.986,1.584c-1.593,1.404-3.054,2.575-5.584,4.16V62.503z"/>
	<path fill="#040000" d="M214.373,58.146c-2.679-1.999-4.422-2.953-6.651-4.017v8.428h-2.586V46.82h2.586v4.663
		c2.174,0.973,4.815,2.215,8.095,4.537L214.373,58.146z"/>
</g>
<g>
	<path fill="#E56228" d="M11.23,21.331l-8.8,7.909L0,23.831c3.526-2.637,5.513-4.314,9.108-7.704L11.23,21.331z M20.989,10.751
		c-4.246-1.986-7.807-3.047-11.95-3.732l2.055-4.794c2.157,0.479,6.608,1.403,11.916,3.595L20.989,10.751z M17.565,11.23
		c-0.343,0.445-1.062,1.335-1.062,2.363c0,0.753,0.239,1.062,2.431,3.664c2.396,2.876,4.144,4.931,4.144,8.08
		c0,2.466-1.096,6.677-7.499,6.677c-2.431,0-4.383-0.582-5.17-0.822l-0.582-6.025c3.149,1.403,4.896,1.506,5.409,1.506
		c0.377,0,1.781-0.068,1.781-1.609c0-1.062-0.754-1.986-2.603-4.246c-2.671-3.253-3.561-4.349-3.561-6.848
		c0-2.465,1.232-4.074,1.951-4.964L17.565,11.23z M27.187,26.912c-1.883-4.006-3.697-7.019-6.061-9.999l4.349-2.807
		c2.465,3.047,4.554,6.095,6.471,9.861L27.187,26.912z"/>
	<path fill="#E56228" d="M41.813,2.705l-0.686,17.702c-0.068,2.123-0.239,6.198,4.726,6.198c5.067,0,8.012-3.938,10.169-10.375
		l4.999,2.773c-3.253,8.765-7.978,13.147-15.374,13.147c-5.409,0-9.519-2.808-10.169-7.909c-0.069-0.514-0.205-1.678-0.137-3.767
		l0.616-18.112L41.813,2.705z M48.797,5.444c1.814,1.986,3.116,4.006,4.485,6.437l-2.808,2.226c-1.507-2.876-2.397-4.28-4.383-6.608
		L48.797,5.444z M53.316,2.533c2.021,2.055,3.493,4.382,4.657,6.334l-2.843,2.191c-1.54-2.773-2.362-4.074-4.45-6.402L53.316,2.533z
		"/>
	<path fill="#E56228" d="M79.961,1.985c1.095,1.507,1.609,2.329,2.842,4.314c0.582-0.104,1.267-0.206,2.328-0.206
		c4.862,0,8.971,2.842,8.971,8.457c0,6.608-6.232,9.176-12.36,8.834l-1.336-5.341c0.65,0.103,1.404,0.206,2.295,0.206
		c3.081,0,6.026-1.13,6.026-3.938c0-1.712-1.302-3.219-3.527-3.219c-2.603,0-4.999,1.027-9.587,3.013
		c2.808,7.328,4.725,13.661,5.752,17.12l-5.513,1.643c-1.541-5.581-3.185-11.162-5.272-16.571c-0.822,0.376-4.349,1.952-5.067,2.294
		l-2.329-5.033c0.856-0.377,4.657-1.986,5.41-2.294c-0.89-2.26-1.883-4.485-2.91-6.711l5.17-2.089
		c1.336,2.979,1.849,4.246,2.843,6.711c0.855-0.342,1.712-0.685,3.834-1.438c-0.548-0.89-0.821-1.335-2.02-3.082L79.961,1.985z"/>
	<path fill="#E56228" d="M118.212,4.348l4.965,6.746c-2.329,8.252-6.608,17.085-18.661,21.948l-3.8-4.623
		c4.177-1.472,7.943-3.903,10.956-7.156c4.006-4.314,5.376-8.868,6.095-11.676h-9.107c-1.268,2.089-3.425,5.342-7.876,9.108
		l-4.279-3.698c4.554-3.698,7.019-7.225,8.73-10.649H118.212z M120.608,0.582c1.438,1.575,2.465,3.184,4.04,6.094l-2.396,1.609
		c-1.267-2.602-2.089-3.938-3.869-6.129L120.608,0.582z M125.676,0c1.575,1.917,2.466,3.492,3.835,6.266l-2.431,1.609
		c-1.164-2.671-1.986-4.075-3.664-6.403L125.676,0z"/>
	<path fill="#E56228" d="M137.254,3.218v8.354c0,7.019-0.686,14.278-7.396,20.818l-4.109-4.212c5.033-5.204,5.89-10.203,5.89-16.366
		V3.218H137.254z M145.54,2.739v21.126c3.63-2.294,6.197-5.307,8.012-8.012l3.767,3.869c-2.568,3.595-7.91,9.998-17.325,12.292
		V2.739H145.54z"/>
	<path fill="#E56228" d="M182.945,14.688v5.307H160.67v-5.307H182.945z"/>
	<path fill="#E56228" d="M204.064,5.204l4.862,5.719c-1.267,6.71-4.349,15.852-16.47,21.434l-3.663-4.623
		c12.052-4.931,13.765-14.107,14.347-17.154h-19.174V5.204H204.064z M215.33,4.656c0,2.568-2.089,4.657-4.657,4.657
		c-2.567,0-4.656-2.089-4.656-4.657c0-2.602,2.089-4.656,4.656-4.656C213.207,0,215.33,2.054,215.33,4.656z M208.345,4.656
		c0,1.267,1.027,2.329,2.328,2.329c1.267,0,2.328-1.027,2.328-2.329c0-1.335-1.096-2.328-2.328-2.328
		C209.406,2.328,208.345,3.355,208.345,4.656z"/>
</g>
</svg>
